<svg height="512pt" viewBox="0 0 512 512" width="512pt" xmlns="http://www.w3.org/2000/svg"><path d="m256 164.570312c-50.496094 0-91.429688 40.933594-91.429688 91.429688s40.933594 91.429688 91.429688 91.429688 91.429688-40.933594 91.429688-91.429688c-.054688-50.472656-40.957032-91.375-91.429688-91.429688zm0 146.285157c-30.296875 0-54.855469-24.558594-54.855469-54.855469s24.558594-54.855469 54.855469-54.855469 54.855469 24.558594 54.855469 54.855469c-.027344 30.285156-24.570313 54.828125-54.855469 54.855469zm0 0"/><path d="m256 0c-141.386719 0-256 114.613281-256 256s114.613281 256 256 256 256-114.613281 256-256c-.160156-141.316406-114.683594-255.839844-256-256zm37.054688 30.246094c1.015624-4.945313 5.84375-8.136719 10.789062-7.125 76.628906 15.910156 140.582031 68.382812 171.15625 140.425781 1.96875 4.652344-.207031 10.015625-4.855469 11.988281-4.652343 1.96875-10.015625-.207031-11.988281-4.855468-28.140625-66.5625-87.207031-115.03125-157.976562-129.648438-4.945313-1.011719-8.136719-5.839844-7.125-10.785156zm143.398437 159.503906c-4.648437 1.972656-10.015625-.195312-11.988281-4.84375-18.613282-43.847656-53.523438-78.757812-97.371094-97.371094-4.648438-1.972656-6.820312-7.339844-4.847656-11.992187 1.96875-4.652344 7.339844-6.820313 11.988281-4.851563 48.210937 20.480469 86.59375 58.863282 107.074219 107.074219.945312 2.230469.964844 4.75.054687 6.996094-.910156 2.25-2.675781 4.042969-4.910156 4.988281zm-283.839844-50.066406c3.570313 3.570312 3.570313 9.359375 0 12.929687-6.636719 6.640625-12.628906 13.894531-17.894531 21.667969-5.289062 7.824219-9.808594 16.144531-13.492188 24.839844-7.617187 17.996094-11.53125 37.339844-11.511718 56.878906 0 5.050781-4.09375 9.144531-9.144532 9.144531-5.046874 0-9.140624-4.09375-9.140624-9.144531 0-11.125 1.121093-22.222656 3.355468-33.125 2.171875-10.582031 5.386719-20.925781 9.597656-30.875 8.292969-19.542969 20.277344-37.304688 35.300782-52.304688 3.570312-3.574218 9.355468-3.578124 12.929687-.011718zm-77.066406 182.566406c4.648437-1.972656 10.015625.195312 11.988281 4.84375 23.445313 55.472656 72.671875 95.871094 131.65625 108.042969 3.265625.585937 5.960938 2.894531 7.035156 6.035156 1.078126 3.140625.367188 6.613281-1.855468 9.082031-2.21875 2.464844-5.601563 3.535156-8.835938 2.792969-12.941406-2.652344-25.589844-6.585937-37.753906-11.738281-48.214844-20.476563-86.605469-58.859375-107.089844-107.074219-.945312-2.230469-.964844-4.75-.054687-6.996094.910156-2.25 2.675781-4.042969 4.910156-4.988281zm-11.546875-57.105469c-5.050781 0-9.144531-4.09375-9.144531-9.144531.011719-53.335938 21.230469-104.480469 58.980469-142.164062 3.589843-3.464844 9.292968-3.414063 12.820312.113281 3.523438 3.527343 3.574219 9.230469.109375 12.816406-16.695313 16.675781-30.015625 36.417969-39.230469 58.140625-4.6875 11.042969-8.261718 22.53125-10.671875 34.285156-2.476562 12.113282-3.722656 24.445313-3.71875 36.808594 0 2.425781-.964843 4.75-2.679687 6.464844s-4.039063 2.679687-6.464844 2.679687zm139.976562 137.617188c-1.96875 4.644531-7.328124 6.820312-11.976562 4.855469-39.457031-16.75-70.867188-48.160157-87.617188-87.617188-1.96875-4.652344.207032-10.015625 4.855469-11.984375 4.652344-1.972656 10.015625.203125 11.988281 4.851563 3.683594 8.699218 8.207032 17.019531 13.503907 24.84375 15.890625 23.523437 38.253906 41.941406 64.390625 53.027343 2.242187.945313 4.015625 2.746094 4.929687 5.003907.910157 2.253906.882813 4.78125-.074219 7.019531zm-176.546874-137.617188c-5.050782 0-9.144532-4.09375-9.144532-9.144531.140625-79.011719 39.425782-152.816406 104.886719-197.054688 2.707031-1.832031 6.183594-2.078124 9.121094-.648437s4.886719 4.316406 5.121093 7.574219c.230469 3.257812-1.296874 6.394531-4 8.222656-35.28125 23.84375-62.910156 57.386719-79.542968 96.585938-5.613282 13.257812-9.902344 27.039062-12.800782 41.140624-2.980468 14.539063-4.484374 29.339844-4.5 44.179688 0 5.050781-4.09375 9.144531-9.140624 9.144531zm228.570312 228.570313c-95.507812-.175782-181.691406-57.339844-219-145.261719-1.96875-4.652344.207031-10.015625 4.855469-11.988281 4.652343-1.96875 10.015625.207031 11.988281 4.855468 34.238281 81.328126 113.917969 134.183594 202.15625 134.109376 5.050781 0 9.144531 4.09375 9.144531 9.140624 0 5.050782-4.09375 9.144532-9.144531 9.144532zm0-128c-60.59375 0-109.714844-49.121094-109.714844-109.714844s49.121094-109.714844 109.714844-109.714844 109.714844 49.121094 109.714844 109.714844c-.066406 60.566406-49.148438 109.648438-109.714844 109.714844zm103.386719-213.101563c-6.640625-6.636719-13.894531-12.628906-21.667969-17.894531-7.824219-5.289062-16.144531-9.808594-24.839844-13.492188-3.03125-1.257812-5.15625-4.042968-5.570312-7.300781-.410156-3.253906.953125-6.480469 3.578125-8.453125 2.621093-1.972656 6.101562-2.386718 9.113281-1.089844 39.457031 16.75 70.867188 48.160157 87.617188 87.617188 1.273437 3.007812.84375 6.46875-1.125 9.074219-1.96875 2.609375-5.175782 3.96875-8.417969 3.566406-3.242188-.402344-6.027344-2.5-7.300781-5.507813-3.683594-8.699218-8.207032-17.019531-13.503907-24.84375-5.257812-7.777343-11.246093-15.035156-17.882812-21.675781zm39.808593 172.972657c-1.222656-.003907-2.4375-.246094-3.566406-.722657-2.234375-.945312-4-2.738281-4.910156-4.988281-.910156-2.246094-.890625-4.765625.054688-6.996094 7.617187-17.996094 11.53125-37.339844 11.511718-56.878906 0-5.050781 4.09375-9.144531 9.144532-9.144531 5.046874 0 9.140624 4.09375 9.140624 9.144531 0 11.125-1.121093 22.222656-3.355468 33.125-2.171875 10.582031-5.386719 20.925781-9.597656 30.875-1.429688 3.386719-4.746094 5.585938-8.421876 5.585938zm8.394532 32.566406c20.417968-30.148438 31.308594-65.738282 31.265625-102.152344 0-5.050781 4.09375-9.144531 9.144531-9.144531s9.144531 4.09375 9.144531 9.144531c.046875 40.066406-11.941406 79.21875-34.40625 112.394531-1.828125 2.703125-4.964843 4.230469-8.222656 4s-6.144531-2.183593-7.574219-5.121093c-1.429687-2.9375-1.183594-6.414063.648438-9.121094zm67.410156-9.699219c-11.980469 28.230469-29.292969 53.882813-50.992188 75.554687-3.585937 3.464844-9.289062 3.417969-12.816406-.109374-3.527344-3.527344-3.574218-9.230469-.109375-12.816407 20.03125-20.011719 36.015625-43.695312 47.074219-69.761719 5.613281-13.257812 9.902344-27.039062 12.800781-41.140624 2.96875-14.539063 4.46875-29.339844 4.472657-44.179688 0-5.050781 4.09375-9.144531 9.140624-9.144531 5.050782 0 9.144532 4.09375 9.144532 9.144531.035156 31.761719-6.328125 63.207031-18.714844 92.453125zm0 0"/></svg>