<svg id="Capa_1" fill='white' data-name="Capa 1" xmlns="http://www.w3.org/2000/svg" viewBox="0 0 432.42 270.41"><path d="M114.47,351.42c35.62,0,64.52-23.11,64.52-51.58V275.62L63.87,331.51C75.69,343.52,93.84,351.42,114.47,351.42Z" transform="translate(0 -81.01)"/><path d="M347.3,254.76a77,77,0,0,0-30.85-6.53c-35.64,0-64.53,23.09-64.53,51.59s28.87,51.58,64.53,51.58S381,328.31,381,299.82V177.6L347.3,194v60.81Z" transform="translate(0 -81.01)"/><path d="M422,107.21l-41,19.91V81H145.32V241.48l-16.8,8.15a76.66,76.66,0,0,0-14.05-1.4c-29.87,0-54.75,16.32-62.1,38.37L0,312,10.44,333.5l422-204.78Zm-74.36,36.18a4.93,4.93,0,0,1-2.27,3c-3.09,2.75-7.91,3.63-11.52,5.42-4.43,2.2-9.38,4.5-14.37,5.17L179,225.13V157.89a5.39,5.39,0,0,1-1.74-5.26,36.46,36.46,0,0,0,.65-10.31A4.09,4.09,0,0,1,179,139V114.61H347.3v23.66a5.08,5.08,0,0,1,.6,2.3A15.75,15.75,0,0,1,347.63,143.39Z" transform="translate(0 -81.01)"/><rect x="166.04" y="56.07" width="12.94" height="22.93"/><rect x="347.31" y="52.56" width="12.94" height="22.93"/><rect x="329.14" y="138.98" width="12.94" height="35.03" transform="translate(333.61 -294.81) rotate(64.69)"/></svg>