<?xml version="1.0" encoding="iso-8859-1"?>
<!-- Generator: Adobe Illustrator 16.0.0, SVG Export Plug-In . SVG Version: 6.00 Build 0)  -->
<!DOCTYPE svg PUBLIC "-//W3C//DTD SVG 1.1//EN" "http://www.w3.org/Graphics/SVG/1.1/DTD/svg11.dtd">
<svg version="1.1" id="Capa_1" xmlns="http://www.w3.org/2000/svg" xmlns:xlink="http://www.w3.org/1999/xlink" x="0px" y="0px"
	 width="432.426px" height="432.426px" viewBox="0 0 432.426 432.426" style="enable-background:new 0 0 432.426 432.426;"
	 xml:space="preserve" fill='white'>
<g>
	<g>
		<path d="M114.471,351.416c35.621,0,64.521-23.109,64.521-51.578V275.62L63.874,331.507
			C75.69,343.522,93.843,351.416,114.471,351.416z"/>
		<path d="M347.301,254.765c-9.202-4.017-19.595-6.539-30.852-6.539c-35.639,0-64.527,23.097-64.527,51.589
			s28.865,51.59,64.527,51.59c35.615,0,64.527-23.098,64.527-51.59V177.603l-33.676,16.348V254.765z"/>
		<path d="M421.987,107.207l-41.011,19.909V81.009H145.315v160.467l-16.797,8.15c-4.519-0.841-9.196-1.401-14.047-1.401
			c-29.87,0-54.754,16.325-62.099,38.371L0,311.982l10.439,21.521l421.986-204.782L421.987,107.207z M178.992,114.61h168.309v25.292
			H178.992V114.61z M178.992,156.735h140.926l-140.926,68.393V156.735z"/>
	</g>
</g>
<g>
</g>
<g>
</g>
<g>
</g>
<g>
</g>
<g>
</g>
<g>
</g>
<g>
</g>
<g>
</g>
<g>
</g>
<g>
</g>
<g>
</g>
<g>
</g>
<g>
</g>
<g>
</g>
<g>
</g>
</svg>
