<?xml version="1.0" standalone="no"?>
<!DOCTYPE svg PUBLIC "-//W3C//DTD SVG 20010904//EN"
 "http://www.w3.org/TR/2001/REC-SVG-20010904/DTD/svg10.dtd">
<svg version="1.0" xmlns="http://www.w3.org/2000/svg"
 width="700.000000pt" height="700.000000pt" viewBox="0 0 700.000000 700.000000"
 preserveAspectRatio="xMidYMid meet">
<metadata>
Created by potrace 1.14, written by Peter Selinger 2001-2017
</metadata>
<g transform="translate(0.000000,700.000000) scale(0.100000,-0.100000)"
fill="#000000" stroke="none">
<path d="M1170 6994 c-186 -28 -328 -70 -457 -137 -313 -161 -546 -436 -651
-767 -60 -192 -57 -37 -57 -2590 0 -2218 1 -2350 18 -2433 118 -581 574 -999
1154 -1057 76 -8 796 -10 2403 -8 l2295 4 90 21 c522 122 893 498 1012 1023
16 69 17 258 20 2400 3 2084 2 2336 -12 2434 -42 287 -166 531 -374 736 -188
186 -392 296 -661 357 -69 16 -255 17 -2415 19 -1287 1 -2351 0 -2365 -2z
m4621 -1095 c41 -14 93 -61 108 -98 8 -18 11 -576 9 -1911 l-3 -1885 -24 -64
c-91 -243 -337 -428 -648 -487 -128 -24 -334 -15 -462 20 -240 67 -434 214
-527 401 -37 75 -64 182 -64 255 0 141 65 293 174 407 163 173 378 267 637
280 185 9 356 -25 512 -103 l67 -34 0 1000 c0 953 -1 1000 -18 1000 -10 0
-625 -67 -1367 -150 -742 -82 -1355 -150 -1362 -150 -11 0 -13 -254 -13 -1330
0 -920 -3 -1345 -11 -1382 -38 -187 -202 -377 -413 -477 -488 -233 -1132 -21
-1277 421 -19 59 -24 94 -24 178 1 163 48 278 167 406 115 123 254 203 437
251 82 22 118 26 251 27 131 0 169 -3 242 -22 96 -26 196 -63 245 -94 l33 -19
2 1548 c3 1440 4 1550 20 1579 23 42 70 81 110 90 32 7 3086 350 3139 353 14
0 41 -4 60 -10z"/>
</g>
</svg>
